<?xml version="1.0" standalone="no"?>
<!DOCTYPE svg PUBLIC "-//W3C//DTD SVG 20010904//EN"
 "http://www.w3.org/TR/2001/REC-SVG-20010904/DTD/svg10.dtd">
<svg version="1.0" xmlns="http://www.w3.org/2000/svg"
 width="24.000000pt" height="24.000000pt" viewBox="0 0 24.000000 24.000000"
 preserveAspectRatio="xMidYMid meet">
<metadata>
Created by potrace 1.10, written by Peter Selinger 2001-2011
</metadata>
<g transform="translate(0.000000,24.000000) scale(0.100000,-0.100000)"
fill="#ffffff" stroke="none">
<path d="M67 198 l-47 -21 0 -57 0 -58 50 -21 50 -22 50 22 50 21 0 58 0 58
-49 21 c-27 11 -51 21 -53 21 -2 -1 -24 -10 -51 -22z m96 -15 c25 -8 21 -17
-13 -30 -22 -8 -38 -8 -60 0 -16 6 -30 14 -30 17 0 11 54 28 70 23 8 -3 23 -8
33 -10z m-70 -50 c12 -4 17 -16 17 -45 0 -34 -3 -39 -17 -33 -10 4 -26 10 -35
12 -13 4 -18 16 -18 45 0 34 3 39 18 33 9 -4 25 -10 35 -12z m107 -22 c0 -28
-5 -40 -17 -44 -10 -2 -26 -8 -35 -12 -15 -6 -18 -1 -18 32 0 33 4 41 28 50
41 16 42 16 42 -26z"/>
</g>
</svg>
