<?xml version="1.0" standalone="no"?>
<!DOCTYPE svg PUBLIC "-//W3C//DTD SVG 20010904//EN"
 "http://www.w3.org/TR/2001/REC-SVG-20010904/DTD/svg10.dtd">
<svg version="1.0" xmlns="http://www.w3.org/2000/svg"
 width="32.000000pt" height="32.000000pt" viewBox="0 0 32.000000 32.000000"
 preserveAspectRatio="xMidYMid meet">
<metadata>
Created by potrace 1.10, written by Peter Selinger 2001-2011
</metadata>
<g transform="translate(0.000000,32.000000) scale(0.100000,-0.100000)"
fill="#ffffff" stroke="none">
<path d="M68 279 c-12 -21 -25 -29 -44 -29 l-27 0 22 -24 c17 -18 22 -32 17
-50 -7 -30 -4 -31 28 -11 20 13 25 13 42 0 28 -21 35 -18 28 11 -5 18 0 32 17
50 l22 24 -26 0 c-19 0 -33 9 -45 29 l-18 29 -16 -29z m39 -39 c10 0 13 -6 9
-16 -3 -9 -6 -19 -6 -24 0 -4 -11 -7 -25 -7 -14 0 -25 3 -25 7 0 5 -3 15 -6
24 -4 11 -1 16 10 16 9 0 16 6 17 13 0 10 2 10 6 0 2 -7 12 -13 20 -13z"/>
<path d="M236 216 c-5 -21 -12 -26 -38 -26 l-31 0 22 -24 c16 -17 21 -31 16
-45 -7 -24 -2 -26 27 -10 14 8 23 8 31 0 18 -18 30 -12 24 11 -4 15 1 30 15
45 l21 23 -26 0 c-18 0 -31 8 -40 26 l-14 27 -7 -27z m27 -63 c-7 -17 -30 -17
-35 -1 -3 7 0 18 6 24 13 14 36 -5 29 -23z"/>
<path d="M98 112 c-5 -16 -14 -22 -34 -22 -26 0 -26 -1 -11 -18 10 -10 17 -29
17 -41 0 -19 3 -20 21 -10 15 8 24 8 32 0 18 -18 28 -12 21 14 -4 18 -1 27 10
31 24 9 19 24 -7 24 -15 0 -28 8 -34 22 l-10 22 -5 -22z m22 -53 c0 -5 -7 -9
-15 -9 -15 0 -20 12 -9 23 8 8 24 -1 24 -14z"/>
</g>
</svg>
